<?xml version="1.0" encoding="utf-8"?>
<!-- Generator: Adobe Illustrator 19.0.1, SVG Export Plug-In . SVG Version: 6.00 Build 0)  -->
<svg version="1.1" id="Layer_1" xmlns="http://www.w3.org/2000/svg" xmlns:xlink="http://www.w3.org/1999/xlink" x="0px" y="0px"
	 viewBox="1025 281 3438.9 1484.5" style="enable-background:new 1025 281 3438.9 1484.5;" xml:space="preserve">
<style type="text/css">
	.st0{fill:#FFFFFF;}
</style>
<g id="XMLID_1_">
	<path id="XMLID_55_" class="st0" d="M1197.9,1689.4v-647.3h315.7v56h-257.2v200.9h252.2v55.9h-252.2v334.5L1197.9,1689.4
		L1197.9,1689.4z"/>
	<path id="XMLID_53_" class="st0" d="M2416.7,1689.4v-675.3l459,542.2v-514.2h54.7v666.3L2471.3,1166v523.4H2416.7z"/>
	<path id="XMLID_51_" class="st0" d="M3073.7,1689.4v-675.3l459,542.2v-514.2h54.7v666.3l-459-542.4v523.4H3073.7z"/>
	<path id="XMLID_49_" class="st0" d="M3730.6,1689.4v-647.3h320.5v56h-262v200.9h262v55.9h-262v279.8h262v54.7H3730.6z"/>
	<path id="XMLID_47_" class="st0" d="M4177.5,1689.4v-647.3h58.5v592.6h222.5v54.7H4177.5z"/>
	<g id="XMLID_41_">
		<path id="XMLID_15_" class="st0" d="M2261.7,1690.7c1.2,0.9,2.3,1.9,2.8,3c5.2,11.3-22.4,29.6-61.8,40.9
			c-38.6,11.2-73.9,11.4-80,0.8c-4.1,5.6-6,11.1-4.5,15.8c5.1,16.6,45,19.1,89,5.6c44.1-13.5,75.6-37.9,70.6-54.4
			C2276.2,1696.8,2270.2,1692.9,2261.7,1690.7z"/>
		<path id="XMLID_42_" class="st0" d="M2054.7,980.2c-285.8-50.4-533-4.1-551.9,103.5c-9.9,55.9,43.9,117.3,137.7,170.4
			c-9.5,11.7-15.6,24.3-16.8,37.8c-5.6,64.8,93.6,129.6,240.1,166.8c-21.7,15.3-34.1,32.6-33.5,50.6c1.9,55.1,122,95.5,268.2,90.4
			c65.4-2.3,124.9-13.4,170.6-29.8c4,3,6.8,6.2,7.6,9.9c4.6,22.4-54.4,47.9-131.8,57.4c-77.4,9.3-143.8-1.2-148.4-23.4
			c-0.4-2.3-0.1-4.6,0.8-6.9c-17.9,13.3-27.7,27.6-25.5,41.1c5.4,34.2,83.6,50.3,174.7,35.9c91-14.4,160.4-53.9,155-88.1
			c-1.8-11.4-11.8-20.7-27.5-27.6c53.5-20.1,86.9-47.8,85.8-77.3c-0.3-10.7-5.6-20.8-14.4-30.1c68.6-22,112.4-55.2,115.9-95.5
			c0.3-3.3-0.2-6.6-0.4-9.9c-30.7,50.9-191.4,81.1-380.7,68.4c-204.6-13.6-365.3-72.2-361.4-131c75.9,32.4,167.3,59.5,267.2,77.2
			c285.9,50.4,533,4.1,552-103.5C2557,1158.7,2340.6,1030.6,2054.7,980.2z M2330.4,1465.3c-13.2,39.2-109.8,71.6-228.7,74.7
			c-129.1,3.3-235.4-29.4-237.3-73.1c-0.1-2.6,0.4-5.2,1.1-7.9c49.7,12.6,104.9,21.9,163.2,27
			C2145.1,1496.2,2251.9,1487.6,2330.4,1465.3z M2469.1,1244.8c-19.7,69-231.1,88.1-472,42.6c-74.8-14.1-143.6-32.8-202.4-53.9
			c1.4-0.5,3-0.9,4.5-1.3c6.3-2,13-3.9,20-5.6c2.8-0.8,5.8-1.5,8.8-2.2c6.8-1.5,13.9-3,21.2-4.4c3.2-0.6,6.3-1.2,9.6-1.8
			c8.4-1.5,17.2-2.8,26.2-4c2.3-0.3,4.5-0.7,6.8-1c11.4-1.4,23.2-2.7,35.4-3.7c3.1-0.3,6.3-0.4,9.5-0.7c9.1-0.7,18.5-1.3,28.1-1.7
			c4.6-0.3,9.4-0.4,14.1-0.5c8.6-0.4,17.1-0.6,25.9-0.7c5,0,10.1-0.1,15.2-0.1c9.3,0,18.7,0.2,28.2,0.4c4.6,0.1,9.1,0.1,13.7,0.3
			c14.1,0.5,28.4,1.1,42.9,2.1c15.3,1,30.3,2.3,45,3.8c0.4,0,0.8,0.1,1.3,0.1c102.6,10.6,190.5,32.4,247.3,59.1
			c-0.3-0.2-0.6-0.4-0.9-0.6c0.1,0,0.2,0.1,0.3,0.1c-8.8-5.9-18.3-11.7-28.7-17.3l0,0c-5.1-2.8-10.3-5.5-15.7-8.2
			c-0.2-0.1-0.4-0.3-0.7-0.4c-5.1-2.5-10.5-5-16-7.4c-0.5-0.2-1-0.5-1.5-0.7c-5.1-2.3-10.5-4.6-15.9-6.7c-0.9-0.4-1.8-0.8-2.7-1.2
			c-5.1-2-10.5-4.1-15.9-6c-1.2-0.5-2.5-1-3.8-1.4c-5.1-1.9-10.4-3.7-15.6-5.5c-1.7-0.5-3.3-1.1-5-1.7c-4.7-1.5-9.7-3-14.5-4.5
			c-2.4-0.7-4.6-1.5-7-2.2c-4.2-1.3-8.7-2.4-13-3.7c-3.1-0.8-6.1-1.7-9.3-2.6c-4-1-8.1-2-12.1-3.1c-3.7-1-7.3-1.9-11-2.8
			c-4-1-8.2-1.8-12.3-2.8c-3.9-0.8-7.7-1.7-11.6-2.6c-3.7-0.8-7.7-1.5-11.4-2.2c-4.4-0.9-8.8-1.8-13.2-2.6
			c-3.5-0.7-6.9-1.2-10.4-1.8c-4.9-0.9-9.8-1.8-14.8-2.6c-4.3-0.7-8.7-1.3-13-1.9c-4.3-0.6-8.5-1.3-12.9-1.9
			c-4.1-0.6-8.4-1-12.5-1.6c-4.6-0.5-9.2-1.1-13.9-1.7c-8.9-1-17.9-1.9-26.9-2.7c-15.7-1.4-31.3-2.3-46.7-3c-5-0.3-9.8-0.3-14.6-0.5
			c-10.4-0.3-20.7-0.6-31-0.6c-5.4,0-10.8,0.1-16.3,0.2c-9.5,0.1-18.8,0.3-28,0.7c-5.3,0.2-10.5,0.4-15.7,0.7
			c-9.3,0.6-18.4,1.3-27.4,2c-4.6,0.4-9.3,0.8-13.8,1.3c-9.9,1.1-19.5,2.3-29.1,3.7c-3.2,0.4-6.6,0.8-9.7,1.3
			c-25.6,4-49.3,9.2-70.9,15.3c-1.9,0.6-3.6,1.2-5.6,1.7c-8.5,2.6-16.8,5.3-24.6,8.2c-0.9,0.3-2,0.6-2.8,1
			c-85.6-40.2-134.3-85-123.5-122.8c19.7-69,231.1-88.1,472-42.6C2309.6,1083,2488.9,1175.8,2469.1,1244.8z"/>
	</g>
	<path id="XMLID_39_" class="st0" d="M1489.6,604.4c-0.9,21.4-5.8,52.3-14.8,92.6c-1.5,6.5-2.7,11.8-3.6,15.6L1422,935.8h-205.1
		L1025,281h236.6l51.4,288.5c4.5,25.3,8,48.5,10.3,69.5c2.4,21,3.9,40.8,4.5,59.3h5.4c0.6-26,5.2-60.1,13.9-102.4
		c0.6-3.9,1.2-7,1.8-9.5L1411,281h165.9l62.1,306c0.2,1.7,0.8,4.7,1.8,8.9c8.6,42.6,13.2,76.7,13.8,102.4h5.3
		c0.6-18.5,2.1-38.3,4.5-59.3s5.8-44.2,10.3-69.5l51.5-288.5h236l-191.4,654.8h-205.2l-49.2-223.2c-0.9-3.8-2.1-9.2-3.6-16.1
		c-9-40-13.9-70.7-14.8-92.1H1489.6z"/>
	<path id="XMLID_37_" class="st0" d="M2098.7,935.8V281h239.1v654.8H2098.7z"/>
	<path id="XMLID_34_" class="st0" d="M2519.2,935.8V281h191c60.4,0,112,3.3,154.8,10.1c42.7,6.7,77.5,17.1,104.3,31
		c56.6,29.9,99.9,69.3,130.2,118.6c30.3,49.2,45.3,105.3,45.3,168.2c0,62.6-15,118.4-45.1,167.3c-30.1,48.9-73.6,88.4-130.5,118.6
		c-27.7,14.3-62.8,24.7-105.4,31.3c-42.6,6.6-99.7,9.8-171.1,9.8L2519.2,935.8L2519.2,935.8z M2753.1,736.2
		c52.9-0.3,91.6-10.7,116-31.1c24.5-20.5,36.6-52.5,36.6-96.2c0-42.7-11.7-74.6-35-95.5c-23.4-20.9-59.1-31.4-107.3-31.4h-10.3
		L2753.1,736.2L2753.1,736.2z"/>
	<path id="XMLID_32_" class="st0" d="M3261.7,935.8V281h437.1v178h-207v62.3h187.8V689h-187.8v68.7h212.4v178H3261.7z"/>
	<path id="XMLID_29_" class="st0" d="M3854.8,935.8V281h295.6c86,0,151.7,18.9,197.1,56.7c45.3,37.8,68,92.3,68,163.5
		c0,46.4-11.4,84.7-34.2,114.8c-22.9,30.1-53.6,47.7-92.4,52.8l175,267h-264L4085,719.5v216.4L3854.8,935.8L3854.8,935.8z M4085,450
		v127.1h36.8c22.4,0,39.7-5.4,51.8-16.2c12.2-10.8,18.2-26.3,18.2-46.4c0-20.7-6-36.7-18.2-47.8c-12.1-11.1-29.4-16.6-51.8-16.6
		H4085V450z"/>
</g>
</svg>
